<svg xmlns="http://www.w3.org/2000/svg" xmlns:xlink="http://www.w3.org/1999/xlink" version="1.1" width="256" height="256" viewBox="0 0 256 256" xml:space="preserve">
<g style="stroke: none; stroke-width: 0; stroke-dasharray: none; stroke-linecap: butt; stroke-linejoin: miter; stroke-miterlimit: 10; fill: none; fill-rule: nonzero; opacity: 1;" transform="translate(1.4065934065934016 1.4065934065934016) scale(2.81 2.81)">
	<rect x="0" y="31.84" rx="0" ry="0" width="90" height="25.55" style="stroke: none; stroke-width: 1; stroke-dasharray: none; stroke-linecap: butt; stroke-linejoin: miter; stroke-miterlimit: 10; fill: rgb(198,0,0); fill-rule: nonzero; opacity: 1;" transform=" matrix(1 0 0 1 0 0) "/>
	<path d="M 9.05 35.099 c 0.001 0.001 -2.397 0 -2.397 0 l -0.986 8.104 c -0.512 4.334 -1.095 8.566 -1.21 9.489 L 4.327 53.72 l -0.082 0.651 h 2.694 l 0.456 -4.653 c 0.055 -0.006 1.028 -0.017 1.064 -0.003 c 0.039 0.015 0.259 4.658 0.26 4.656 c 0 -0.002 2.604 0 2.604 0 C 11.32 54.371 9.048 35.096 9.05 35.099 z M 7.448 47.702 c -0.022 -0.008 0.447 -8.343 0.466 -8.341 c -0.028 -0.033 0.399 6.397 0.468 8.336 C 8.368 47.699 7.466 47.709 7.448 47.702 z" style="stroke: none; stroke-width: 1; stroke-dasharray: none; stroke-linecap: butt; stroke-linejoin: miter; stroke-miterlimit: 10; fill: rgb(255,255,255); fill-rule: nonzero; opacity: 1;" transform=" matrix(1 0 0 1 0 0) " stroke-linecap="round"/>
	<path d="M 22.316 37.471 c -0.583 -1.663 -1.639 -2.372 -4.236 -2.372 h -2.396 l 0.001 19.273 h 2.316 c 2.03 0 2.421 -0.09 3.163 -0.714 c 0.466 -0.392 1.001 -1.228 1.19 -1.858 C 22.821 50.243 22.79 38.824 22.316 37.471 z M 19.796 50.914 c -0.203 0.484 -1.495 0.488 -1.492 0.482 c 0.005 -0.01 0.094 -13.327 0.099 -13.326 c 0.002 0 0.784 -0.01 1.196 0.403 c 0.402 0.402 0.472 1.311 0.472 6.161 C 20.071 47.997 19.966 50.499 19.796 50.914 z" style="stroke: none; stroke-width: 1; stroke-dasharray: none; stroke-linecap: butt; stroke-linejoin: miter; stroke-miterlimit: 10; fill: rgb(255,255,255); fill-rule: nonzero; opacity: 1;" transform=" matrix(1 0 0 1 0 0) " stroke-linecap="round"/>
	<path d="M 28.882 54.372 c -0.541 -6.428 -1.307 -12.844 -1.813 -19.273 c 0 -0.001 2.244 -0.003 2.243 0 c 0.527 3.776 0.508 7.608 0.963 11.391 l 1.465 -11.391 c 0 0 2.331 0.001 2.33 0 c -0.003 -0.003 -2.326 19.273 -2.326 19.273 C 31.746 54.371 28.882 54.371 28.882 54.372 z" style="stroke: none; stroke-width: 1; stroke-dasharray: none; stroke-linecap: butt; stroke-linejoin: miter; stroke-miterlimit: 10; fill: rgb(255,255,255); fill-rule: nonzero; opacity: 1;" transform=" matrix(1 0 0 1 0 0) " stroke-linecap="round"/>
	<rect x="38.16" y="35.1" rx="0" ry="0" width="2.64" height="19.27" style="stroke: none; stroke-width: 1; stroke-dasharray: none; stroke-linecap: butt; stroke-linejoin: miter; stroke-miterlimit: 10; fill: rgb(255,255,255); fill-rule: nonzero; opacity: 1;" transform=" matrix(1 0 0 1 0 0) "/>
	<path d="M 47.021 54.068 c -1.036 -0.502 -1.616 -1.939 -1.51 -3.742 L 45.46 48.72 h 1.313 h 1.259 l 0.055 1.459 c 0.122 1.216 0.243 1.459 0.73 1.459 c 0.495 0 0.597 -0.223 0.668 -1.459 c 0.089 -1.528 0.047 -1.66 -2.809 -6.174 c -1.228 -1.942 -1.702 -4.233 -1.23 -5.951 c 0.461 -1.678 1.72 -2.955 2.925 -2.955 c 2.186 0 3.51 1.61 3.51 4.249 v 1.339 c 0 0 -2.509 -0.031 -2.511 -0.034 c -0.005 -0.004 0.017 -0.549 0.03 -1.224 c 0.027 -1.358 -0.657 -1.826 -1.237 -1.344 c -0.309 0.256 -0.393 0.75 -0.297 1.747 c 0.104 1.087 0.525 1.984 1.934 4.121 c 1.96 2.973 2.375 4.073 2.365 6.078 c -0.008 1.556 -0.708 3.597 -1.701 4.064 C 49.559 54.522 47.857 54.472 47.021 54.068 z" style="stroke: none; stroke-width: 1; stroke-dasharray: none; stroke-linecap: butt; stroke-linejoin: miter; stroke-miterlimit: 10; fill: rgb(255,255,255); fill-rule: nonzero; opacity: 1;" transform=" matrix(1 0 0 1 0 0) " stroke-linecap="round"/>
	<path d="M 63.285 44.613 c -0.017 -2.591 0.032 -4.536 -0.025 -5.777 c -0.172 -2.139 -1.105 -3.711 -3.487 -3.737 c -2.022 0.055 -3.133 1.621 -3.152 3.568 c -0.091 3.297 -0.183 11.022 0.075 13.159 c 0.325 1.647 1.21 2.555 3.35 2.545 c 2.082 -0.089 2.654 -1.105 2.987 -2.499 C 63.184 50.854 63.314 48.959 63.285 44.613 z M 60.033 51.755 c -1.042 0.016 -0.955 -0.644 -1.011 -1.862 c -0.056 -1.203 -0.055 -10.039 0 -11.058 c 0.048 -0.876 0.422 -1.375 0.968 -1.367 c 0.464 0.007 0.833 0.216 0.868 1.245 c 0.029 0.885 0.009 9.717 0 11.018 C 60.852 50.455 60.964 51.74 60.033 51.755 z" style="stroke: none; stroke-width: 1; stroke-dasharray: none; stroke-linecap: butt; stroke-linejoin: miter; stroke-miterlimit: 10; fill: rgb(255,255,255); fill-rule: nonzero; opacity: 1;" transform=" matrix(1 0 0 1 0 0) " stroke-linecap="round"/>
	<path d="M 73.698 44.482 l 0.618 -0.786 c 0.511 -0.65 0.618 -1.185 0.618 -3.091 c 0 -2.489 -0.411 -3.84 -1.449 -4.766 c -0.508 -0.453 -1.168 -0.659 -2.959 -0.741 h -2.305 v 19.272 h 2.632 v -8.463 c 0.007 0.002 0.782 -0.018 0.877 0.021 c 0.503 0.205 0.577 1.16 0.577 4.671 v 3.77 h 2.623 l 0.003 -4.286 c 0 -3.964 -0.046 -4.335 -0.618 -4.944 L 73.698 44.482 z M 72.292 41.944 c -0.072 0.659 -0.229 0.88 -0.335 0.986 c -0.353 0.353 -1.063 0.355 -1.065 0.359 c -0.001 0.001 0.038 -5.196 0.043 -5.188 c 0.013 0.018 1.408 -0.181 1.408 1.714 C 72.344 40.341 72.358 41.351 72.292 41.944 z" style="stroke: none; stroke-width: 1; stroke-dasharray: none; stroke-linecap: butt; stroke-linejoin: miter; stroke-miterlimit: 10; fill: rgb(255,255,255); fill-rule: nonzero; opacity: 1;" transform=" matrix(1 0 0 1 0 0) " stroke-linecap="round"/>
	<path d="M 81.208 54.371 c -0.004 0 0.003 -8.789 0.001 -8.79 c 0 -0.005 -1.947 -10.446 -1.913 -10.482 c 0.001 0.001 2.121 0 2.121 0 c -0.002 -0.003 1.204 6.984 1.231 6.959 c 0.031 -0.029 0.946 -6.962 0.944 -6.959 c 0 0 2.162 0.002 2.16 0 c -0.001 -0.002 0.002 0 0.002 0 c 0.003 -0.002 -1.929 10.508 -1.929 10.518 l 0 8.753 C 83.826 54.37 81.207 54.367 81.208 54.371 z" style="stroke: none; stroke-width: 1; stroke-dasharray: none; stroke-linecap: butt; stroke-linejoin: miter; stroke-miterlimit: 10; fill: rgb(255,255,255); fill-rule: nonzero; opacity: 1;" transform=" matrix(1 0 0 1 0 0) " stroke-linecap="round"/>
	<path d="M 8.297 20.311 H 6.855 v 4.264 c 0 2.331 0.004 4.33 0.001 4.333 c -0.003 0.003 1.694 0 1.693 0 c 0.002 -0.944 -0.018 -1.9 0 -2.845 c 0.631 -0.235 1.334 -0.307 1.89 -0.713 c 0.562 -0.559 0.701 -0.992 0.701 -2.156 C 11.14 21.17 10.312 20.311 8.297 20.311 z M 9.423 23.712 c -0.004 0.358 -0.11 0.671 -0.734 0.641 c -0.035 -0.002 -0.115 0 -0.117 -0.002 c -0.001 -0.001 -0.003 -0.332 -0.003 -1.157 c 0 -0.825 0.004 -1.149 0.009 -1.15 c 0.007 -0.001 0.177 -0.005 0.252 -0.005 c 0.458 0 0.573 0.251 0.591 0.552 c 0.011 0.182 0.013 0.382 0.008 0.555 C 9.423 23.314 9.425 23.519 9.423 23.712 z" style="stroke: none; stroke-width: 1; stroke-dasharray: none; stroke-linecap: butt; stroke-linejoin: miter; stroke-miterlimit: 10; fill: rgb(198,0,0); fill-rule: nonzero; opacity: 1;" transform=" matrix(1 0 0 1 0 0) " stroke-linecap="round"/>
	<path d="M 19.58 20.311 c 0.002 -0.002 -1.202 -0.001 -1.2 0 c -0.002 -0.002 -1.364 8.594 -1.366 8.597 c 0.001 0.002 1.546 -0.001 1.553 0 c -0.005 0.005 0.218 -2.022 0.215 -2.022 c 0.001 0 0.75 0.006 0.751 0.005 c -0.001 0.002 0.151 1.997 0.185 2.017 c 0 -0.003 1.678 -0.003 1.677 0 C 21.395 28.911 19.582 20.31 19.58 20.311 z M 18.776 26.068 c -0.006 -0.002 0.331 -3.265 0.339 -3.265 c -0.001 -0.002 0.411 3.242 0.406 3.267 C 19.54 26.072 18.778 26.062 18.776 26.068 z" style="stroke: none; stroke-width: 1; stroke-dasharray: none; stroke-linecap: butt; stroke-linejoin: miter; stroke-miterlimit: 10; fill: rgb(198,0,0); fill-rule: nonzero; opacity: 1;" transform=" matrix(1 0 0 1 0 0) " stroke-linecap="round"/>
	<path d="M 52.666 20.311 h -1.534 c 0.001 0.001 0.018 4.213 0.023 4.232 c -0.001 -0.012 -1.75 -4.229 -1.75 -4.232 h -1.43 v 8.597 h 1.732 c -0.002 0 -0.076 -4.694 -0.085 -4.699 c -0.002 -0.003 1.525 4.7 1.526 4.699 c 0.003 0.002 1.517 0.001 1.518 0 C 52.669 28.908 52.667 20.311 52.666 20.311 z" style="stroke: none; stroke-width: 1; stroke-dasharray: none; stroke-linecap: butt; stroke-linejoin: miter; stroke-miterlimit: 10; fill: rgb(198,0,0); fill-rule: nonzero; opacity: 1;" transform=" matrix(1 0 0 1 0 0) " stroke-linecap="round"/>
	<path d="M 61.992 22.052 c 0.001 0 1.144 0 1.145 0 v -1.741 c 0.003 0 -3.989 0.002 -3.988 0 c 0 0 -0.004 1.735 0 1.73 c 0.002 -0.002 1.118 0 1.125 0 c 0.005 0 -0.011 6.869 0 6.867 c 0 0 1.705 0.001 1.718 0 C 62.001 28.908 61.989 22.053 61.992 22.052 z" style="stroke: none; stroke-width: 1; stroke-dasharray: none; stroke-linecap: butt; stroke-linejoin: miter; stroke-miterlimit: 10; fill: rgb(198,0,0); fill-rule: nonzero; opacity: 1;" transform=" matrix(1 0 0 1 0 0) " stroke-linecap="round"/>
	<path d="M 71.905 20.311 c 0 0 -1.308 0.007 -1.305 0 c 0.003 -0.008 -1.32 8.597 -1.32 8.597 s 1.28 0 1.28 0 c -0.002 0.002 0.324 -2.001 0.309 -1.999 c -0.02 0.003 0.765 0 0.776 0 c 0.007 0 0.372 1.999 0.376 1.999 h 1.471 L 71.905 20.311 z M 70.857 26.063 c -0.013 0.003 0.318 -2.757 0.426 -3.284 c 0.018 0.023 0.344 2.521 0.431 3.284 C 71.697 26.064 70.865 26.068 70.857 26.063 z" style="stroke: none; stroke-width: 1; stroke-dasharray: none; stroke-linecap: butt; stroke-linejoin: miter; stroke-miterlimit: 10; fill: rgb(198,0,0); fill-rule: nonzero; opacity: 1;" transform=" matrix(1 0 0 1 0 0) " stroke-linecap="round"/>
	<path d="M 31.324 24.97 c 0 -0.017 -0.182 -0.424 -0.183 -0.422 c 0 0 0.148 -0.185 0.197 -0.294 c 0.103 -0.212 0.272 -0.438 0.272 -1.403 c 0 -1.469 -0.337 -2.54 -1.488 -2.54 H 27.71 v 8.597 h 1.714 c 0 -0.001 -0.003 -3.437 0.001 -3.428 c 0.19 0.002 0.38 0.001 0.57 0.001 l -0.018 3.427 h 1.635 l 0.001 -1.777 C 31.612 25.903 31.499 25.449 31.324 24.97 z M 30 23.766 c -0.009 -0.003 -0.573 0 -0.577 0 c -0.005 0 0.001 -0.638 0.001 -0.857 c 0 -0.216 0.006 -0.859 -0.001 -0.858 c -0.004 0 0.565 -0.003 0.567 -0.003 c 0.008 0 0.118 0.415 0.118 0.887 C 30.109 23.406 30.004 23.767 30 23.766 z" style="stroke: none; stroke-width: 1; stroke-dasharray: none; stroke-linecap: butt; stroke-linejoin: miter; stroke-miterlimit: 10; fill: rgb(198,0,0); fill-rule: nonzero; opacity: 1;" transform=" matrix(1 0 0 1 0 0) " stroke-linecap="round"/>
	<path d="M 41.693 28.909 c 0 -0.01 0.019 -1.429 0.012 -1.429 c -0.005 0 -1.726 -0.003 -1.731 -0.002 c -0.005 0.001 -0.005 -2.286 0 -2.285 c 0.005 0.001 1.124 0 1.131 0 c 0.01 0.001 0.006 -1.41 0 -1.415 c -0.009 -0.007 -1.123 0 -1.131 0 c -0.009 0 -0.015 -1.733 0 -1.733 c 0.024 0 1.732 -0.016 1.732 -0.007 c 0.001 0.011 -0.001 -0.875 -0.002 -0.883 c -0.002 -0.009 0.009 -0.844 0.002 -0.843 H 38.28 v 8.597 h 1.624 C 39.911 28.909 41.693 28.9 41.693 28.909 z" style="stroke: none; stroke-width: 1; stroke-dasharray: none; stroke-linecap: butt; stroke-linejoin: miter; stroke-miterlimit: 10; fill: rgb(198,0,0); fill-rule: nonzero; opacity: 1;" transform=" matrix(1 0 0 1 0 0) " stroke-linecap="round"/>
	<polygon points="83.14,27.48 81.46,27.48 81.46,20.31 79.72,20.31 79.72,28.91 83.14,28.91 " style="stroke: none; stroke-width: 1; stroke-dasharray: none; stroke-linecap: butt; stroke-linejoin: miter; stroke-miterlimit: 10; fill: rgb(198,0,0); fill-rule: nonzero; opacity: 1;" transform="  matrix(1 0 0 1 0 0) "/>
	<polygon points="8.95,69.55 8.95,68.38 7.06,68.38 7.06,65.17 8.2,65.17 8.2,63.97 7.04,63.97 7.04,61.37 8.95,61.37 8.95,60.21 5.89,60.21 5.89,69.55 " style="stroke: none; stroke-width: 1; stroke-dasharray: none; stroke-linecap: butt; stroke-linejoin: miter; stroke-miterlimit: 10; fill: rgb(198,0,0); fill-rule: nonzero; opacity: 1;" transform="  matrix(1 0 0 1 0 0) "/>
	<path d="M 12.502 66.096 l 0.511 3.448 c 0.002 0.002 1.152 0.003 1.152 0 c -0.001 -0.002 -0.712 -4.792 -0.711 -4.792 c 0 0 0.654 -4.546 0.652 -4.547 c -0.002 0 -1.041 0 -1.041 0 c 0.001 0 -0.564 3.526 -0.564 3.524 c 0 0.003 -0.755 -3.522 -0.754 -3.524 c 0.002 -0.002 -1.151 0 -1.152 0 c 0 0 0.976 4.545 0.975 4.547 c 0 0.001 -0.934 4.798 -0.938 4.792 c -0.001 -0.002 1.114 0 1.112 0 C 11.742 69.545 12.505 66.098 12.502 66.096 z" style="stroke: none; stroke-width: 1; stroke-dasharray: none; stroke-linecap: butt; stroke-linejoin: miter; stroke-miterlimit: 10; fill: rgb(198,0,0); fill-rule: nonzero; opacity: 1;" transform=" matrix(1 0 0 1 0 0) " stroke-linecap="round"/>
	<path d="M 17.623 60.206 H 16.3 c 0 0 0.003 9.343 0 9.339 c 0 0 1.151 -0.002 1.151 -0.001 c 0 0 0.002 -3.544 0.025 -3.518 c 0.012 0.013 0.886 -0.05 1.426 -0.683 c 0.617 -0.724 0.697 -1.379 0.698 -2.344 C 19.601 61.596 19.124 60.179 17.623 60.206 z M 17.786 64.551 c -0.182 0.035 -0.346 0.022 -0.337 0.023 c 0.009 0.001 -0.007 -2.922 -0.001 -2.909 c 0.002 0.005 0.184 -0.018 0.356 0.015 c 0.396 0.076 0.647 0.443 0.647 1.454 S 18.182 64.475 17.786 64.551 z" style="stroke: none; stroke-width: 1; stroke-dasharray: none; stroke-linecap: butt; stroke-linejoin: miter; stroke-miterlimit: 10; fill: rgb(198,0,0); fill-rule: nonzero; opacity: 1;" transform=" matrix(1 0 0 1 0 0) " stroke-linecap="round"/>
	<polygon points="24.81,68.39 23.11,68.38 23.11,60.21 21.94,60.21 21.94,69.55 24.81,69.55 " style="stroke: none; stroke-width: 1; stroke-dasharray: none; stroke-linecap: butt; stroke-linejoin: miter; stroke-miterlimit: 10; fill: rgb(198,0,0); fill-rule: nonzero; opacity: 1;" transform="  matrix(1 0 0 1 0 0) "/>
	<polygon points="27.8,69.55 27.8,60.21 26.63,60.21 26.63,69.54 " style="stroke: none; stroke-width: 1; stroke-dasharray: none; stroke-linecap: butt; stroke-linejoin: miter; stroke-miterlimit: 10; fill: rgb(198,0,0); fill-rule: nonzero; opacity: 1;" transform="  matrix(1 0 0 1 0 0) "/>
	<path d="M 33.71 66.937 c -0.008 -0.003 -1.079 -0.001 -1.079 -0.001 c 0.001 -0.001 -0.002 0.566 -0.002 0.87 c 0.003 0.92 -1.029 0.871 -1.021 -0.028 c -0.034 -0.577 -0.021 -1.645 -0.015 -2.894 c 0.006 -1.513 -0.05 -2.472 0.016 -2.977 c 0.098 -0.744 1.022 -0.801 1.023 -0.078 c 0 0.267 -0.003 0.982 0 0.981 c 0.003 -0.001 1.079 0.006 1.08 0.004 c 0.001 -0.003 -0.01 -0.542 0.003 -0.864 c 0.019 -0.476 -0.135 -0.991 -0.302 -1.218 c -0.369 -0.502 -0.984 -0.531 -1.376 -0.527 c -0.686 0.008 -1.278 0.313 -1.515 1.055 c -0.145 0.454 -0.131 3.639 -0.131 3.631 c 0 -0.007 -0.001 2.706 0 2.737 c 0.007 1.137 0.405 1.962 1.62 1.972 c 1.027 -0.04 1.653 -0.601 1.702 -1.518 C 33.735 67.696 33.72 67.317 33.71 66.937 z" style="stroke: none; stroke-width: 1; stroke-dasharray: none; stroke-linecap: butt; stroke-linejoin: miter; stroke-miterlimit: 10; fill: rgb(198,0,0); fill-rule: nonzero; opacity: 1;" transform=" matrix(1 0 0 1 0 0) " stroke-linecap="round"/>
	<path d="M 36.827 60.206 c 0.001 -0.002 -1.166 0 -1.166 0 c 0 -0.001 0.001 9.341 0 9.34 c -0.001 -0.001 1.16 -0.002 1.166 0 C 36.834 69.548 36.826 60.21 36.827 60.206 z" style="stroke: none; stroke-width: 1; stroke-dasharray: none; stroke-linecap: butt; stroke-linejoin: miter; stroke-miterlimit: 10; fill: rgb(198,0,0); fill-rule: nonzero; opacity: 1;" transform=" matrix(1 0 0 1 0 0) " stroke-linecap="round"/>
	<path d="M 41.205 61.374 c 0.004 -0.002 1.148 -0.001 1.149 0 c 0.002 0.001 0.001 -1.161 -0.002 -1.167 c -0.003 -0.006 -3.465 -0.002 -3.464 0 c 0.001 0.002 0.001 1.168 0 1.167 c -0.002 0 1.153 -0.002 1.153 0 c 0 0.003 -0.002 8.171 0 8.171 l 1.164 0 C 41.206 69.543 41.2 61.377 41.205 61.374 z" style="stroke: none; stroke-width: 1; stroke-dasharray: none; stroke-linecap: butt; stroke-linejoin: miter; stroke-miterlimit: 10; fill: rgb(198,0,0); fill-rule: nonzero; opacity: 1;" transform=" matrix(1 0 0 1 0 0) " stroke-linecap="round"/>
	<path d="M 51.435 69.046 c 0.348 -0.626 0.274 -2.118 0.276 -2.118 c 0.003 0 -1.133 -0.001 -1.133 -0.001 c -0.001 0.004 0.006 1.056 -0.059 1.232 c -0.033 0.089 -0.233 0.314 -0.488 0.314 c -0.267 0 -0.325 -0.187 -0.382 -0.286 c -0.048 -0.084 -0.069 -0.297 -0.078 -0.511 c -0.003 -0.066 -0.045 -5.328 0.02 -5.72 c 0.089 -0.535 0.814 -0.479 0.918 -0.05 c 0.032 0.134 0.03 0.917 0.03 0.917 c 0.003 -0.001 1.182 0 1.18 0 c -0.002 0 0.06 -1.161 -0.334 -1.856 c -0.471 -0.831 -1.646 -1.05 -2.45 -0.323 c -0.252 0.228 -0.439 0.511 -0.511 1.234 c -0.06 0.604 -0.023 1.553 -0.023 2.956 c 0 1.403 -0.045 2.943 0.039 3.557 c 0.114 0.835 0.816 1.313 1.578 1.3 C 50.535 69.681 51.151 69.562 51.435 69.046 z" style="stroke: none; stroke-width: 1; stroke-dasharray: none; stroke-linecap: butt; stroke-linejoin: miter; stroke-miterlimit: 10; fill: rgb(198,0,0); fill-rule: nonzero; opacity: 1;" transform=" matrix(1 0 0 1 0 0) " stroke-linecap="round"/>
	<path d="M 56.458 60.762 c -0.431 -0.763 -1.75 -0.695 -2.104 -0.151 c -0.537 0.456 -0.664 1.73 -0.701 4.264 c -0.046 3.199 0.087 3.779 0.454 4.261 c 0.522 0.683 1.613 0.669 2.144 0.084 c 0.369 -0.369 0.612 -1.323 0.612 -4.345 C 56.863 62.552 56.839 61.344 56.458 60.762 z M 55.71 64.876 c -0.032 1.786 0.017 2.86 -0.115 3.226 c -0.036 0.1 -0.104 0.343 -0.337 0.348 c -0.54 0.011 -0.563 -0.943 -0.52 -3.587 c 0.027 -1.649 0.011 -2.597 0.119 -2.996 c 0.066 -0.244 0.256 -0.331 0.366 -0.33 c 0.117 0 0.291 0.082 0.357 0.325 C 55.69 62.259 55.739 63.224 55.71 64.876 z" style="stroke: none; stroke-width: 1; stroke-dasharray: none; stroke-linecap: butt; stroke-linejoin: miter; stroke-miterlimit: 10; fill: rgb(198,0,0); fill-rule: nonzero; opacity: 1;" transform=" matrix(1 0 0 1 0 0) " stroke-linecap="round"/>
	<polygon points="60.23,63.59 61.64,69.54 62.8,69.54 62.81,60.21 61.64,60.2 61.64,66.31 60.17,60.21 59.07,60.21 59.07,69.54 60.23,69.54 " style="stroke: none; stroke-width: 1; stroke-dasharray: none; stroke-linecap: butt; stroke-linejoin: miter; stroke-miterlimit: 10; fill: rgb(198,0,0); fill-rule: nonzero; opacity: 1;" transform="  matrix(1 0 0 1 0 0) "/>
	<path d="M 66.883 61.374 c -0.002 0.001 1.172 0.001 1.172 0 c 0 0 -0.003 -1.17 0 -1.167 c 0.001 0.001 -3.503 0.001 -3.504 0 c -0.002 -0.001 -0.002 1.167 0 1.167 c 0.001 0 1.172 -0.002 1.173 0 c 0.001 0.002 -0.003 8.175 0 8.171 c 0.001 -0.001 1.16 -0.003 1.159 0 C 66.882 69.548 66.883 61.373 66.883 61.374 z" style="stroke: none; stroke-width: 1; stroke-dasharray: none; stroke-linecap: butt; stroke-linejoin: miter; stroke-miterlimit: 10; fill: rgb(198,0,0); fill-rule: nonzero; opacity: 1;" transform=" matrix(1 0 0 1 0 0) " stroke-linecap="round"/>
	<polygon points="72.97,69.54 72.97,68.38 71.27,68.38 71.27,65.17 72.42,65.17 72.42,63.97 71.27,63.97 71.27,61.36 72.97,61.36 72.97,60.21 70.1,60.21 70.1,64.85 70.1,69.54 " style="stroke: none; stroke-width: 1; stroke-dasharray: none; stroke-linecap: butt; stroke-linejoin: miter; stroke-miterlimit: 10; fill: rgb(198,0,0); fill-rule: nonzero; opacity: 1;" transform="  matrix(1 0 0 1 0 0) "/>
	<polygon points="76.32,63.57 77.74,69.54 78.89,69.54 78.89,60.21 77.73,60.21 77.73,66.34 76.25,60.21 75.17,60.21 75.15,69.54 76.32,69.54 " style="stroke: none; stroke-width: 1; stroke-dasharray: none; stroke-linecap: butt; stroke-linejoin: miter; stroke-miterlimit: 10; fill: rgb(198,0,0); fill-rule: nonzero; opacity: 1;" transform="  matrix(1 0 0 1 0 0) "/>
	<path d="M 82.926 61.374 c 0.004 0 1.18 0.001 1.18 0 c 0 -0.001 -0.003 -1.166 0 -1.167 c 0.001 0 -3.516 0.001 -3.518 0 c 0.002 0.005 0.001 1.168 0 1.167 c 0.004 0.002 1.171 0.003 1.172 0 c 0.001 -0.003 0 8.171 0 8.171 c -0.001 -0.002 1.167 0 1.167 0 C 82.926 69.544 82.926 61.374 82.926 61.374 z" style="stroke: none; stroke-width: 1; stroke-dasharray: none; stroke-linecap: butt; stroke-linejoin: miter; stroke-miterlimit: 10; fill: rgb(198,0,0); fill-rule: nonzero; opacity: 1;" transform=" matrix(1 0 0 1 0 0) " stroke-linecap="round"/>
</g>
</svg>