<svg xmlns="http://www.w3.org/2000/svg" xmlns:xlink="http://www.w3.org/1999/xlink" version="1.1" width="256" height="256" viewBox="0 0 256 256" xml:space="preserve">
<g style="stroke: none; stroke-width: 0; stroke-dasharray: none; stroke-linecap: butt; stroke-linejoin: miter; stroke-miterlimit: 10; fill: none; fill-rule: nonzero; opacity: 1;" transform="translate(1.4065934065934016 1.4065934065934016) scale(2.81 2.81)">
	<rect x="3.44" y="11.14" rx="0" ry="0" width="84.42" height="67.06" style="stroke: none; stroke-width: 1; stroke-dasharray: none; stroke-linecap: butt; stroke-linejoin: miter; stroke-miterlimit: 10; fill: rgb(249,249,249); fill-rule: nonzero; opacity: 1;" transform=" matrix(1 0 0 1 0 0) "/>
	<path d="M 31.6 47.353 c 0.361 0 0.645 -0.146 0.851 -0.438 c 0.207 -0.293 0.31 -0.698 0.31 -1.217 c 0 -0.567 -0.093 -0.986 -0.28 -1.257 S 32 44.034 31.6 44.034 c -0.4 0 -0.696 0.138 -0.887 0.413 c -0.191 0.274 -0.287 0.691 -0.287 1.25 c 0 0.514 0.103 0.919 0.31 1.213 C 30.943 47.205 31.231 47.353 31.6 47.353 z" style="stroke: none; stroke-width: 1; stroke-dasharray: none; stroke-linecap: butt; stroke-linejoin: miter; stroke-miterlimit: 10; fill: rgb(210,34,21); fill-rule: nonzero; opacity: 1;" transform=" matrix(1 0 0 1 0 0) " stroke-linecap="round"/>
	<path d="M 68.538 47.353 c 0.36 0 0.644 -0.146 0.851 -0.438 c 0.207 -0.293 0.31 -0.698 0.31 -1.217 c 0 -0.567 -0.093 -0.986 -0.28 -1.257 c -0.187 -0.271 -0.48 -0.406 -0.88 -0.406 c -0.4 0 -0.696 0.138 -0.888 0.413 c -0.191 0.274 -0.287 0.691 -0.287 1.25 c 0 0.514 0.104 0.919 0.311 1.213 C 67.881 47.205 68.169 47.353 68.538 47.353 z" style="stroke: none; stroke-width: 1; stroke-dasharray: none; stroke-linecap: butt; stroke-linejoin: miter; stroke-miterlimit: 10; fill: rgb(210,34,21); fill-rule: nonzero; opacity: 1;" transform=" matrix(1 0 0 1 0 0) " stroke-linecap="round"/>
	<path d="M 78.652 44.242 c -0.063 -0.165 -0.154 -0.307 -0.273 -0.425 c -0.211 -0.225 -0.521 -0.337 -0.93 -0.337 c -0.369 0 -0.666 0.119 -0.891 0.356 c -0.105 0.114 -0.19 0.255 -0.254 0.422 s -0.096 0.352 -0.096 0.554 h 2.539 C 78.748 44.598 78.717 44.407 78.652 44.242 z" style="stroke: none; stroke-width: 1; stroke-dasharray: none; stroke-linecap: butt; stroke-linejoin: miter; stroke-miterlimit: 10; fill: rgb(210,34,21); fill-rule: nonzero; opacity: 1;" transform=" matrix(1 0 0 1 0 0) " stroke-linecap="round"/>
	<path d="M 87.788 9.121 H 46.643 h -7.289 H 2.212 C 0.991 9.121 0 10.112 0 11.334 v 21.545 v 45.788 c 0 1.222 0.991 2.212 2.212 2.212 h 37.141 h 7.289 h 41.145 c 1.222 0 2.212 -0.991 2.212 -2.212 V 32.879 V 11.334 C 90 10.112 89.009 9.121 87.788 9.121 z M 53.418 14.557 c 0 -0.63 0.511 -1.141 1.141 -1.141 h 5.133 c 0.63 0 1.141 0.511 1.141 1.141 v 5.133 c 0 0.63 -0.511 1.141 -1.141 1.141 h -5.133 c -0.63 0 -1.141 -0.511 -1.141 -1.141 V 14.557 z M 57.331 42.211 c 0.36 -0.244 0.831 -0.366 1.412 -0.366 H 59 v 2.843 l -0.304 -0.02 l -0.276 -0.014 c -0.576 0 -1 0.13 -1.271 0.39 c -0.27 0.261 -0.405 0.668 -0.405 1.223 v 2.946 h -2.862 v -7.177 h 2.632 v 1.306 C 56.698 42.832 56.971 42.455 57.331 42.211 z M 41.392 14.557 c 0 -0.63 0.511 -1.141 1.141 -1.141 h 4.11 h 1.023 c 0.63 0 1.141 0.511 1.141 1.141 v 5.133 c 0 0.63 -0.511 1.141 -1.141 1.141 h -1.023 h -4.11 c -0.63 0 -1.141 -0.511 -1.141 -1.141 V 14.557 z M 29.168 14.557 c 0 -0.63 0.511 -1.141 1.141 -1.141 h 5.133 c 0.63 0 1.141 0.511 1.141 1.141 v 5.133 c 0 0.63 -0.511 1.141 -1.141 1.141 h -5.133 c -0.63 0 -1.141 -0.511 -1.141 -1.141 V 14.557 z M 17.141 14.557 c 0 -0.63 0.511 -1.141 1.141 -1.141 h 5.133 c 0.63 0 1.141 0.511 1.141 1.141 v 5.133 c 0 0.63 -0.511 1.141 -1.141 1.141 h -5.133 c -0.63 0 -1.141 -0.511 -1.141 -1.141 V 14.557 z M 5.115 14.557 c 0 -0.63 0.511 -1.141 1.141 -1.141 h 5.133 c 0.63 0 1.141 0.511 1.141 1.141 v 5.133 c 0 0.63 -0.511 1.141 -1.141 1.141 H 6.256 c -0.63 0 -1.141 -0.511 -1.141 -1.141 V 14.557 z M 12.53 75.443 c 0 0.63 -0.511 1.141 -1.141 1.141 H 6.256 c -0.63 0 -1.141 -0.511 -1.141 -1.141 V 70.31 c 0 -0.63 0.511 -1.141 1.141 -1.141 h 5.133 c 0.63 0 1.141 0.511 1.141 1.141 V 75.443 z M 16.057 48.608 c -0.75 0.579 -1.824 0.868 -3.222 0.868 c -1.293 0 -2.315 -0.288 -3.067 -0.864 s -1.174 -1.388 -1.266 -2.434 h 3.034 c 0.08 0.347 0.23 0.599 0.452 0.755 c 0.222 0.156 0.551 0.234 0.986 0.234 c 0.365 0 0.652 -0.063 0.861 -0.188 c 0.209 -0.125 0.313 -0.298 0.313 -0.518 c 0 -0.348 -0.438 -0.633 -1.313 -0.857 l -0.402 -0.099 c -0.721 -0.185 -1.294 -0.354 -1.718 -0.505 c -0.425 -0.151 -0.731 -0.294 -0.92 -0.426 c -0.365 -0.259 -0.643 -0.577 -0.834 -0.953 c -0.191 -0.376 -0.287 -0.806 -0.287 -1.289 c 0 -0.959 0.363 -1.715 1.088 -2.27 c 0.365 -0.276 0.792 -0.483 1.283 -0.619 c 0.49 -0.137 1.061 -0.205 1.712 -0.205 c 1.244 0 2.224 0.262 2.938 0.785 c 0.715 0.523 1.123 1.277 1.224 2.263 h -2.961 c -0.044 -0.282 -0.169 -0.494 -0.376 -0.637 s -0.499 -0.215 -0.877 -0.215 c -0.33 0 -0.577 0.056 -0.742 0.165 c -0.165 0.11 -0.248 0.277 -0.248 0.501 c 0 0.313 0.427 0.581 1.28 0.805 l 0.171 0.047 l 0.561 0.139 c 1.135 0.285 1.874 0.545 2.216 0.778 c 0.422 0.281 0.734 0.605 0.937 0.973 s 0.304 0.799 0.304 1.296 C 17.182 47.207 16.807 48.03 16.057 48.608 z M 24.556 75.443 c 0 0.63 -0.511 1.141 -1.141 1.141 h -5.133 c -0.63 0 -1.141 -0.511 -1.141 -1.141 V 70.31 c 0 -0.63 0.511 -1.141 1.141 -1.141 h 5.133 c 0.63 0 1.141 0.511 1.141 1.141 V 75.443 z M 26.126 49.206 h -2.605 V 48.15 c -0.326 0.418 -0.698 0.73 -1.118 0.937 c -0.42 0.207 -0.885 0.311 -1.395 0.311 c -0.435 0 -0.826 -0.074 -1.17 -0.222 c -0.346 -0.146 -0.635 -0.361 -0.868 -0.643 c -0.207 -0.242 -0.355 -0.552 -0.445 -0.931 c -0.09 -0.378 -0.135 -0.995 -0.135 -1.853 v -3.714 h 2.85 v 3.7 c 0 0.536 0.073 0.911 0.218 1.125 c 0.145 0.213 0.396 0.319 0.752 0.319 c 0.356 0 0.623 -0.121 0.801 -0.362 c 0.178 -0.242 0.267 -0.607 0.267 -1.095 v -3.688 h 2.85 V 49.206 z M 27.669 39.49 h 2.784 v 3.298 c 0.277 -0.316 0.59 -0.555 0.94 -0.716 c 0.35 -0.16 0.72 -0.24 1.111 -0.24 c 0.937 0 1.691 0.348 2.263 1.044 c 0.571 0.696 0.857 1.62 0.857 2.771 c 0 1.146 -0.283 2.068 -0.848 2.765 c -0.565 0.696 -1.31 1.044 -2.233 1.044 c -0.479 0 -0.911 -0.092 -1.296 -0.275 s -0.735 -0.468 -1.052 -0.853 v 0.878 h -2.526 V 39.49 z M 36.582 75.443 c 0 0.63 -0.511 1.141 -1.141 1.141 h -5.133 c -0.63 0 -1.141 -0.511 -1.141 -1.141 V 70.31 c 0 -0.63 0.511 -1.141 1.141 -1.141 h 5.133 c 0.63 0 1.141 0.511 1.141 1.141 V 75.443 z M 37.444 48.83 c -0.312 -0.216 -0.554 -0.476 -0.726 -0.778 c -0.185 -0.33 -0.277 -0.699 -0.277 -1.108 h 2.771 c 0 0.304 0.079 0.53 0.237 0.68 s 0.391 0.224 0.699 0.224 c 0.299 0 0.529 -0.05 0.689 -0.151 c 0.161 -0.101 0.241 -0.248 0.241 -0.441 c 0 -0.316 -0.354 -0.554 -1.062 -0.711 l -0.146 -0.033 c -1.341 -0.286 -2.216 -0.593 -2.625 -0.923 c -0.409 -0.329 -0.613 -0.813 -0.613 -1.449 c 0 -0.76 0.3 -1.343 0.9 -1.749 c 0.6 -0.406 1.476 -0.609 2.628 -0.609 c 1.073 0 1.9 0.188 2.483 0.563 c 0.583 0.376 0.92 0.939 1.012 1.691 h -2.566 c -0.022 -0.211 -0.115 -0.381 -0.28 -0.511 c -0.165 -0.13 -0.373 -0.194 -0.623 -0.194 c -0.255 0 -0.446 0.044 -0.574 0.132 c -0.132 0.079 -0.198 0.202 -0.198 0.369 c 0 0.28 0.323 0.491 0.97 0.632 l 0.389 0.079 c 1.302 0.299 2.148 0.615 2.54 0.949 c 0.391 0.334 0.587 0.828 0.587 1.482 c 0 0.821 -0.321 1.44 -0.963 1.857 c -0.317 0.207 -0.71 0.363 -1.181 0.469 c -0.471 0.104 -1.022 0.157 -1.656 0.157 C 38.938 49.456 38.051 49.247 37.444 48.83 z M 48.806 75.443 c 0 0.63 -0.511 1.141 -1.141 1.141 h -1.023 h -4.11 c -0.63 0 -1.141 -0.511 -1.141 -1.141 V 70.31 c 0 -0.63 0.511 -1.141 1.141 -1.141 h 4.11 h 1.023 c 0.63 0 1.141 0.511 1.141 1.141 V 75.443 z M 52.4 47.653 c -0.195 0.373 -0.476 0.702 -0.841 0.987 c -0.348 0.271 -0.747 0.476 -1.2 0.612 c -0.453 0.136 -0.973 0.203 -1.557 0.203 c -1.267 0 -2.27 -0.344 -3.011 -1.031 c -0.741 -0.688 -1.111 -1.626 -1.111 -2.817 c 0 -1.182 0.364 -2.115 1.092 -2.801 c 0.728 -0.685 1.729 -1.027 3.004 -1.027 c 1.144 0 2.071 0.27 2.783 0.811 c 0.36 0.277 0.636 0.594 0.824 0.95 c 0.189 0.356 0.284 0.763 0.284 1.22 h -2.85 c 0 -0.162 -0.027 -0.307 -0.082 -0.432 c -0.056 -0.125 -0.129 -0.231 -0.221 -0.32 c -0.177 -0.162 -0.428 -0.243 -0.752 -0.243 c -0.414 0 -0.717 0.147 -0.91 0.444 c -0.194 0.296 -0.291 0.763 -0.291 1.398 c 0 0.642 0.092 1.112 0.277 1.413 c 0.185 0.301 0.483 0.45 0.896 0.45 c 0.334 0 0.593 -0.089 0.775 -0.269 c 0.182 -0.179 0.293 -0.443 0.333 -0.793 h 2.85 C 52.694 46.865 52.597 47.28 52.4 47.653 z M 60.832 75.443 c 0 0.63 -0.511 1.141 -1.141 1.141 h -5.133 c -0.63 0 -1.141 -0.511 -1.141 -1.141 V 70.31 c 0 -0.63 0.511 -1.141 1.141 -1.141 h 5.133 c 0.63 0 1.141 0.511 1.141 1.141 V 75.443 z M 62.984 49.213 h -2.876 v -7.177 h 2.876 V 49.213 z M 62.984 41.304 h -2.876 v -2.051 h 2.876 V 41.304 z M 64.606 39.49 h 2.784 v 3.298 c 0.276 -0.316 0.59 -0.555 0.939 -0.716 c 0.35 -0.16 0.72 -0.24 1.111 -0.24 c 0.937 0 1.69 0.348 2.263 1.044 c 0.571 0.696 0.857 1.62 0.857 2.771 c 0 1.146 -0.283 2.068 -0.848 2.765 c -0.565 0.696 -1.31 1.044 -2.232 1.044 c -0.479 0 -0.912 -0.092 -1.297 -0.275 s -0.735 -0.468 -1.052 -0.853 v 0.878 h -2.526 V 39.49 z M 72.859 75.443 c 0 0.63 -0.511 1.141 -1.141 1.141 h -5.133 c -0.63 0 -1.141 -0.511 -1.141 -1.141 V 70.31 c 0 -0.63 0.511 -1.141 1.141 -1.141 h 5.133 c 0.63 0 1.141 0.511 1.141 1.141 V 75.443 z M 72.859 19.69 c 0 0.63 -0.511 1.141 -1.141 1.141 h -5.133 c -0.63 0 -1.141 -0.511 -1.141 -1.141 v -5.133 c 0 -0.63 0.511 -1.141 1.141 -1.141 h 5.133 c 0.63 0 1.141 0.511 1.141 1.141 V 19.69 z M 74.438 48.432 c -0.724 -0.684 -1.086 -1.603 -1.086 -2.758 c 0 -1.199 0.37 -2.148 1.108 -2.847 c 0.739 -0.699 1.744 -1.048 3.015 -1.048 c 1.275 0 2.274 0.378 2.998 1.134 c 0.723 0.757 1.085 1.81 1.085 3.16 v 0.171 l -5.35 0.007 c 0 0.228 0.029 0.427 0.089 0.598 s 0.15 0.323 0.274 0.459 c 0.224 0.245 0.543 0.368 0.956 0.368 c 0.286 0 0.519 -0.051 0.699 -0.153 c 0.18 -0.103 0.304 -0.249 0.369 -0.44 h 2.73 c -0.197 0.776 -0.633 1.366 -1.306 1.77 s -1.557 0.604 -2.651 0.604 C 76.139 49.456 75.161 49.115 74.438 48.432 z M 84.885 75.443 c 0 0.63 -0.511 1.141 -1.141 1.141 h -5.133 c -0.63 0 -1.141 -0.511 -1.141 -1.141 V 70.31 c 0 -0.63 0.511 -1.141 1.141 -1.141 h 5.133 c 0.63 0 1.141 0.511 1.141 1.141 V 75.443 z M 84.885 19.69 c 0 0.63 -0.511 1.141 -1.141 1.141 h -5.133 c -0.63 0 -1.141 -0.511 -1.141 -1.141 v -5.133 c 0 -0.63 0.511 -1.141 1.141 -1.141 h 5.133 c 0.63 0 1.141 0.511 1.141 1.141 V 19.69 z" style="stroke: none; stroke-width: 1; stroke-dasharray: none; stroke-linecap: butt; stroke-linejoin: miter; stroke-miterlimit: 10; fill: rgb(210,34,21); fill-rule: nonzero; opacity: 1;" transform=" matrix(1 0 0 1 0 0) " stroke-linecap="round"/>
</g>
</svg>