<svg xmlns="http://www.w3.org/2000/svg" xmlns:xlink="http://www.w3.org/1999/xlink" version="1.1" width="256" height="256" viewBox="0 0 256 256" xml:space="preserve">
<g style="stroke: none; stroke-width: 0; stroke-dasharray: none; stroke-linecap: butt; stroke-linejoin: miter; stroke-miterlimit: 10; fill: none; fill-rule: nonzero; opacity: 1;" transform="translate(1.4065934065934016 1.4065934065934016) scale(2.81 2.81)">
	<path d="M 90 90 H 45 C 20.147 90 0 69.853 0 45 v 0 C 0 20.147 20.147 0 45 0 h 0 c 24.853 0 45 20.147 45 45 V 90 z" style="stroke: none; stroke-width: 1; stroke-dasharray: none; stroke-linecap: butt; stroke-linejoin: miter; stroke-miterlimit: 10; fill: rgb(255,0,0); fill-rule: nonzero; opacity: 1;" transform=" matrix(1 0 0 1 0 0) " stroke-linecap="round"/>
	<path d="M 19.817 14.357 c -0.25 -0.141 -0.49 -0.294 -0.772 -0.457 c 0.283 -0.174 0.544 -0.326 0.794 -0.468 c 1.164 -0.631 1.806 -1.914 1.61 -3.22 c -0.283 -2.143 -2.752 -3.383 -4.623 -2.317 c -1.914 1.099 -3.829 2.176 -5.722 3.307 c -1.501 0.903 -1.719 2.099 -1.479 3.513 c 0.152 0.881 0.74 1.534 1.512 1.98 c 0.272 0.152 0.533 0.305 0.827 0.479 c -0.326 0.196 -0.62 0.37 -0.935 0.533 c -1.392 0.881 -1.871 2.687 -1.088 4.144 c 0.827 1.534 2.741 2.121 4.275 1.294 c 1.653 -0.935 3.307 -1.893 4.949 -2.85 c 0.392 -0.228 0.805 -0.435 1.153 -0.718 C 22.069 18.12 21.808 15.477 19.817 14.357 z M 13.976 17.925 v -4.753 l 4.112 2.371 L 13.976 17.925 z" style="stroke: none; stroke-width: 1; stroke-dasharray: none; stroke-linecap: butt; stroke-linejoin: miter; stroke-miterlimit: 10; fill: rgb(255,255,255); fill-rule: nonzero; opacity: 1;" transform=" matrix(2.81 0 0 2.81 1.4065934065934016 1.4065934065934016) " stroke-linecap="round"/>
</g>
</svg>